<?xml version="1.0" encoding="utf-8"?>
<!-- Generator: Adobe Illustrator 28.2.0, SVG Export Plug-In . SVG Version: 6.00 Build 0)  -->
<svg version="1.1" id="레이어_1" xmlns="http://www.w3.org/2000/svg" xmlns:xlink="http://www.w3.org/1999/xlink" x="0px"
	 y="0px" viewBox="0 0 240 42" style="enable-background:new 0 0 240 42;" xml:space="preserve">
<style type="text/css">
	.st0{clip-path:url(#SVGID_00000137854403727891196730000013346859093312947077_);}
	.st1{fill:#BCBFC1;}
</style>
<g>
	<defs>
		<rect id="SVGID_1_" width="240" height="42"/>
	</defs>
	<clipPath id="SVGID_00000168085539888669922700000016168064679798236082_">
		<use xlink:href="#SVGID_1_"  style="overflow:visible;"/>
	</clipPath>
	<g id="그룹_3" style="clip-path:url(#SVGID_00000168085539888669922700000016168064679798236082_);">
		<path id="패스_23" class="st1" d="M96.6,6.9c0-0.4,0.1-0.7,0.4-0.9c0.6-0.5,1.4-0.5,1.9,0c0.2,0.3,0.4,0.6,0.4,0.9v9.3
			c0,0.4-0.1,0.7-0.4,1c-0.6,0.5-1.4,0.5-1.9,0c-0.2-0.3-0.4-0.6-0.4-1V6.9z"/>
		<path id="패스_24" class="st1" d="M110.5,13.2c0.1-0.1,0.1-0.3,0.2-0.4c0.1-0.3,0.3-0.5,0.4-0.8c0.2-0.3,0.5-0.5,0.8-0.5
			c0.3,0,0.5,0.1,0.7,0.3c0.2,0.2,0.3,0.4,0.3,0.6c0,0.2,0,0.3-0.1,0.5c-0.1,0.2-0.2,0.4-0.3,0.6c-0.1,0.2-0.2,0.4-0.4,0.6
			c-0.1,0.2-0.3,0.3-0.4,0.5l1,1.2c0.2,0.2,0.2,0.4,0.2,0.6c0,0.3-0.1,0.5-0.3,0.7c-0.2,0.2-0.6,0.3-0.9,0.3c-0.1,0-0.3,0-0.4-0.1
			c-0.1-0.1-0.3-0.2-0.4-0.3l-0.7-0.8c-0.5,0.5-1.1,0.8-1.7,1.1c-0.7,0.2-1.4,0.3-2.1,0.3c-0.5,0-1.1-0.1-1.6-0.3
			c-0.4-0.2-0.8-0.4-1.1-0.7c-0.3-0.3-0.5-0.6-0.7-1c-0.1-0.4-0.2-0.8-0.2-1.2c0-0.8,0.2-1.5,0.7-2.1c0.5-0.6,1.1-1.1,1.9-1.4
			c-0.3-0.3-0.6-0.7-0.8-1.1c-0.2-0.4-0.3-0.8-0.3-1.2c0-0.8,0.3-1.6,0.9-2.1c0.7-0.5,1.5-0.8,2.3-0.8c0.5,0,1.1,0.1,1.6,0.3
			c0.4,0.1,0.7,0.4,1,0.7c0.2,0.3,0.4,0.6,0.6,0.9c0.3,0.9,0.2,1.9-0.4,2.7c-0.4,0.5-0.9,0.9-1.5,1.2L110.5,13.2z M106.8,12.2
			c-0.4,0.2-0.8,0.5-1.2,0.9c-0.3,0.3-0.4,0.6-0.4,1c0,0.4,0.1,0.8,0.4,1.1c0.3,0.3,0.7,0.5,1.2,0.4c0.4,0,0.8-0.1,1.1-0.3
			c0.4-0.2,0.7-0.4,1-0.7L106.8,12.2z M106.7,9.2c0.2,0.3,0.5,0.6,0.8,0.8l0,0c0.3-0.2,0.7-0.4,0.9-0.7c0.2-0.2,0.4-0.6,0.3-0.9
			c0-0.3-0.1-0.6-0.3-0.7c-0.5-0.4-1.2-0.4-1.7,0c-0.2,0.2-0.3,0.4-0.3,0.7C106.4,8.7,106.5,9,106.7,9.2"/>
		<path id="패스_25" class="st1" d="M121.8,16.6c-0.1,0.3-0.3,0.6-0.6,0.7c-0.7,0.3-1.4,0.3-2.1,0c-0.3-0.2-0.5-0.4-0.6-0.7
			l-3.3-9.1c-0.1-0.2-0.2-0.5-0.2-0.8c0-0.3,0.1-0.7,0.4-0.9c0.3-0.2,0.6-0.3,1-0.3c0.3,0,0.6,0.1,0.9,0.3c0.2,0.2,0.4,0.5,0.5,0.9
			l2.4,7.8h0l2.5-7.8c0.2-0.8,0.7-1.2,1.2-1.2c0.3,0,0.7,0.1,1,0.3c0.3,0.2,0.4,0.5,0.4,0.9c0,0.3-0.1,0.5-0.2,0.8L121.8,16.6z"/>
		<path id="패스_26" class="st1" d="M126.7,6.9c0-0.4,0.1-0.7,0.4-0.9c0.6-0.5,1.4-0.5,1.9,0c0.2,0.3,0.4,0.6,0.4,0.9v9.3
			c0,0.4-0.1,0.7-0.4,1c-0.6,0.5-1.4,0.5-1.9,0c-0.2-0.3-0.4-0.6-0.4-1V6.9z"/>
		<path id="패스_27" class="st1" d="M131.9,7.3c0-0.4,0.1-0.9,0.4-1.2c0.3-0.3,0.7-0.4,1.2-0.4h6.2c0.3,0,0.7,0.1,1,0.2
			c0.3,0.2,0.4,0.5,0.3,0.8c0,0.3-0.1,0.6-0.3,0.8c-0.3,0.2-0.7,0.3-1,0.2h-5.1v2.5h4.5c0.3,0,0.6,0.1,0.9,0.2
			c0.2,0.2,0.4,0.5,0.3,0.8c0,0.3-0.1,0.6-0.3,0.8c-0.3,0.2-0.6,0.2-0.9,0.2h-4.5v2.8h5.3c0.3,0,0.7,0.1,1,0.2
			c0.3,0.2,0.4,0.5,0.3,0.8c0,0.3-0.1,0.6-0.3,0.8c-0.3,0.2-0.7,0.3-1,0.2h-6.4c-0.4,0-0.8-0.1-1.2-0.4c-0.3-0.3-0.4-0.7-0.4-1.2
			V7.3z"/>
		<path id="패스_28" class="st1" d="M154.1,16.3c-0.1,0.4-0.3,0.7-0.5,1c-0.3,0.2-0.7,0.3-1.1,0.3c-0.4,0-0.8-0.1-1.1-0.3
			c-0.3-0.3-0.4-0.6-0.5-1l-1.7-7h0l-1.7,7c-0.1,0.4-0.2,0.7-0.5,1c-0.3,0.2-0.7,0.3-1.1,0.3c-0.4,0-0.8-0.1-1.1-0.3
			c-0.3-0.3-0.5-0.6-0.5-1L142,7.5c-0.1-0.2-0.1-0.5-0.1-0.8c0-0.3,0.1-0.7,0.4-0.9c0.3-0.2,0.6-0.3,0.9-0.3c0.6,0,1.2,0.4,1.2,1.1
			l1.6,7.6h0l1.8-7.7c0-0.3,0.2-0.5,0.4-0.7c0.3-0.2,0.6-0.3,1-0.2c0.4,0,0.8,0.1,1.1,0.3c0.2,0.3,0.4,0.6,0.4,0.9l1.8,7.5h0
			l1.6-7.6c0-0.6,0.6-1.1,1.2-1.1c0.3,0,0.6,0.1,0.9,0.3c0.3,0.2,0.4,0.5,0.4,0.9c0,0.3-0.1,0.5-0.1,0.8L154.1,16.3z"/>
		<path id="패스_29" class="st1" d="M95.6,27.8c0.2-0.7,0.6-1.4,1.1-1.9c0.5-0.6,1.1-1,1.8-1.3c0.8-0.3,1.6-0.5,2.4-0.5
			c0.7,0,1.3,0.1,2,0.3c0.5,0.2,1,0.4,1.5,0.8c0.4,0.3,0.7,0.6,0.9,1c0.2,0.3,0.3,0.6,0.3,1c0.1,0.6-0.3,1.1-0.9,1.2
			c-0.1,0-0.2,0-0.3,0c-0.3,0-0.5-0.1-0.7-0.2c-0.2-0.2-0.4-0.4-0.6-0.6c-0.2-0.3-0.5-0.7-0.9-0.9c-0.4-0.2-0.9-0.3-1.3-0.3
			c-0.8,0-1.7,0.4-2.2,1.1c-0.6,0.8-0.9,1.8-0.9,2.9c0,0.5,0.1,1,0.2,1.5c0.1,0.4,0.3,0.9,0.6,1.2c0.2,0.4,0.6,0.7,1,0.8
			c0.4,0.2,0.9,0.3,1.4,0.3c0.4,0,0.9-0.1,1.2-0.3c0.3-0.3,0.6-0.6,0.9-1c0.2-0.2,0.4-0.5,0.6-0.7c0.2-0.1,0.4-0.2,0.6-0.2
			c0.3,0,0.6,0.1,0.9,0.3c0.2,0.2,0.4,0.4,0.4,0.7c0,0.4-0.1,0.8-0.4,1.2c-0.3,0.4-0.6,0.8-1,1.1c-0.4,0.3-0.9,0.6-1.5,0.8
			c-2.1,0.6-4.4,0.2-6.1-1.3c-1.1-1.2-1.6-2.8-1.5-4.5C95.2,29.3,95.3,28.5,95.6,27.8"/>
		<path id="패스_30" class="st1" d="M107.1,27.6c0.2-0.7,0.6-1.3,1.1-1.9c0.5-0.5,1.2-1,1.9-1.2c1.6-0.6,3.4-0.6,5,0
			c0.7,0.3,1.3,0.7,1.9,1.2c0.5,0.5,0.9,1.2,1.1,1.9c0.3,0.8,0.4,1.5,0.4,2.3c0,0.8-0.1,1.6-0.4,2.4c-0.2,0.7-0.6,1.4-1.1,2
			c-0.5,0.6-1.1,1-1.9,1.3c-0.8,0.3-1.7,0.5-2.6,0.5c-0.9,0-1.8-0.1-2.7-0.5c-0.7-0.3-1.3-0.7-1.8-1.3c-0.5-0.6-0.9-1.2-1.1-2
			c-0.2-0.8-0.3-1.6-0.3-2.5C106.7,29.2,106.9,28.4,107.1,27.6 M109.6,31.6c0.1,0.5,0.3,0.9,0.5,1.3c0.3,0.4,0.6,0.7,1,0.9
			c0.5,0.2,1,0.3,1.5,0.3c0.5,0,1-0.1,1.5-0.3c0.4-0.2,0.8-0.5,1-0.9c0.3-0.4,0.5-0.8,0.6-1.3c0.1-0.5,0.2-1.1,0.2-1.6
			c0-1-0.2-1.9-0.8-2.7c-1.3-1.3-3.4-1.4-4.7-0.1c0,0-0.1,0.1-0.1,0.1c-0.6,0.8-0.9,1.8-0.8,2.7C109.4,30.5,109.5,31,109.6,31.6"/>
		<path id="패스_31" class="st1" d="M120.4,25.4c0-0.4,0.1-0.8,0.4-1c0.3-0.2,0.7-0.3,1-0.3h0.8c0.3,0,0.7,0.1,0.9,0.3
			c0.3,0.3,0.5,0.6,0.5,0.9l2.3,7.4h0l2.3-7.4c0.1-0.4,0.3-0.7,0.5-0.9c0.3-0.2,0.6-0.3,0.9-0.3h0.7c0.4,0,0.7,0.1,1,0.3
			c0.3,0.2,0.4,0.6,0.4,1v9.3c0,0.3-0.1,0.6-0.3,0.9c-0.5,0.5-1.3,0.5-1.8,0c-0.2-0.3-0.3-0.6-0.3-0.9v-7.1h0l-2.5,7.6
			c-0.1,0.5-0.6,0.8-1.1,0.8c-0.5,0-1-0.3-1.1-0.8l-2.5-7.6h0v7.1c0,0.3-0.1,0.7-0.3,0.9c-0.5,0.5-1.3,0.5-1.8,0
			c-0.2-0.3-0.3-0.6-0.3-0.9L120.4,25.4z"/>
		<path id="패스_32" class="st1" d="M134.8,25.4c0-0.4,0.1-0.8,0.4-1c0.3-0.2,0.7-0.3,1-0.3h0.8c0.3,0,0.7,0.1,0.9,0.3
			c0.3,0.3,0.5,0.6,0.5,0.9l2.3,7.4h0l2.3-7.4c0.1-0.4,0.3-0.7,0.5-0.9c0.3-0.2,0.6-0.3,0.9-0.3h0.7c0.4,0,0.7,0.1,1,0.3
			c0.3,0.2,0.4,0.6,0.4,1v9.3c0,0.3-0.1,0.6-0.3,0.9c-0.5,0.5-1.3,0.5-1.8,0c-0.2-0.3-0.3-0.6-0.3-0.9v-7.1h0l-2.5,7.6
			c-0.1,0.5-0.6,0.8-1.1,0.8c-0.5,0-1-0.3-1.1-0.8l-2.5-7.6h0v7.1c0,0.3-0.1,0.7-0.3,0.9c-0.5,0.5-1.3,0.5-1.8,0
			c-0.2-0.3-0.3-0.6-0.3-0.9L134.8,25.4z"/>
		<path id="패스_33" class="st1" d="M149.3,25.5c0-0.4,0.1-0.7,0.4-1c0.6-0.5,1.4-0.5,1.9,0c0.2,0.3,0.4,0.6,0.4,1v6.3
			c-0.1,0.6,0.2,1.3,0.6,1.7c1.1,0.7,2.5,0.7,3.6,0c0.4-0.5,0.7-1.1,0.6-1.7v-6.3c0-0.4,0.1-0.7,0.4-1c0.6-0.5,1.4-0.5,1.9,0
			c0.2,0.3,0.4,0.6,0.4,1v6.1c0.1,1.3-0.4,2.6-1.3,3.4c-2.3,1.5-5.2,1.5-7.5,0c-0.9-0.9-1.4-2.2-1.3-3.4L149.3,25.5z"/>
		<path id="패스_34" class="st1" d="M161.8,25.7c0-0.4,0.1-0.9,0.4-1.2c0.4-0.3,0.8-0.4,1.3-0.4c0.5,0,1,0.2,1.3,0.7l4.6,7.4h0
			v-6.8c0-0.7,0.6-1.3,1.3-1.3c0.7,0,1.3,0.6,1.3,1.3v9c0,0.4-0.1,0.9-0.4,1.2c-0.3,0.3-0.8,0.5-1.2,0.4c-0.3,0-0.6,0-0.9-0.1
			c-0.2-0.1-0.4-0.3-0.6-0.6l-4.6-7.2h0v6.6c0,0.7-0.6,1.3-1.3,1.2c-0.7,0-1.2-0.6-1.2-1.2L161.8,25.7z"/>
		<path id="패스_35" class="st1" d="M174.5,25.5c0-0.4,0.1-0.7,0.4-1c0.6-0.5,1.4-0.5,1.9,0c0.2,0.3,0.4,0.6,0.4,1v9.3
			c0,0.4-0.1,0.7-0.4,1c-0.6,0.5-1.4,0.5-1.9,0c-0.2-0.3-0.4-0.6-0.4-1V25.5z"/>
		<path id="패스_36" class="st1" d="M179.6,27.8c0.2-0.7,0.6-1.4,1.1-1.9c0.5-0.6,1.1-1,1.8-1.3c0.8-0.3,1.6-0.5,2.4-0.5
			c0.7,0,1.3,0.1,2,0.3c0.5,0.2,1,0.4,1.5,0.8c0.4,0.3,0.7,0.6,0.9,1c0.2,0.3,0.3,0.6,0.3,1c0.1,0.6-0.3,1.1-0.9,1.2
			c-0.1,0-0.2,0-0.3,0c-0.3,0-0.5-0.1-0.7-0.2c-0.2-0.2-0.4-0.4-0.6-0.6c-0.2-0.3-0.5-0.7-0.9-0.9c-0.4-0.2-0.9-0.3-1.3-0.3
			c-0.8,0-1.7,0.4-2.2,1.1c-0.6,0.8-0.9,1.8-0.9,2.9c0,0.5,0.1,1,0.2,1.5c0.1,0.4,0.3,0.9,0.6,1.2c0.2,0.4,0.6,0.7,1,0.8
			c0.4,0.2,0.9,0.3,1.4,0.3c0.4,0,0.9-0.1,1.2-0.3c0.3-0.3,0.6-0.6,0.9-1c0.2-0.2,0.4-0.5,0.6-0.7c0.2-0.1,0.4-0.2,0.6-0.2
			c0.3,0,0.6,0.1,0.9,0.3c0.2,0.2,0.4,0.4,0.4,0.7c0,0.4-0.1,0.8-0.4,1.2c-0.3,0.4-0.6,0.8-1,1.1c-0.4,0.3-0.9,0.6-1.5,0.8
			c-2.1,0.6-4.4,0.2-6.1-1.3c-1.1-1.2-1.6-2.8-1.5-4.5C179.2,29.3,179.3,28.5,179.6,27.8"/>
		<path id="패스_37" class="st1" d="M193.9,24.9c0.1-0.3,0.3-0.5,0.5-0.6c0.3-0.1,0.5-0.2,0.8-0.2h0.6c0.3,0,0.6,0.1,0.9,0.2
			c0.3,0.2,0.5,0.4,0.6,0.8l3.2,8.8c0.1,0.2,0.1,0.4,0.2,0.6c0,0.1,0.1,0.3,0.1,0.5c0,0.3-0.1,0.6-0.4,0.8c-0.2,0.2-0.6,0.3-0.9,0.3
			c-0.5,0.1-1-0.2-1.2-0.7l-0.7-1.9h-4.3l-0.7,1.9c-0.2,0.5-0.7,0.8-1.2,0.7c-0.3,0-0.6-0.1-0.9-0.3c-0.2-0.2-0.4-0.5-0.3-0.8
			c0-0.2,0-0.3,0.1-0.5c0.1-0.2,0.1-0.4,0.2-0.6L193.9,24.9z M195.5,27L195.5,27l-1.6,4.6h3.1L195.5,27z"/>
		<path id="패스_38" class="st1" d="M203.8,26.6h-2.5c-0.4,0-0.7-0.1-1-0.3c-0.5-0.4-0.5-1-0.2-1.5c0-0.1,0.1-0.1,0.2-0.2
			c0.3-0.2,0.6-0.3,1-0.3h7.7c0.4,0,0.7,0.1,1,0.3c0.5,0.4,0.5,1,0.2,1.5c0,0.1-0.1,0.1-0.2,0.2c-0.3,0.2-0.6,0.3-1,0.3h-2.5v8.2
			c0,0.4-0.1,0.7-0.4,1c-0.6,0.5-1.4,0.5-1.9,0c-0.2-0.3-0.4-0.6-0.4-1V26.6z"/>
		<path id="패스_39" class="st1" d="M211.7,25.5c0-0.4,0.1-0.7,0.4-1c0.6-0.5,1.4-0.5,1.9,0c0.2,0.3,0.4,0.6,0.4,1v9.3
			c0,0.4-0.1,0.7-0.4,1c-0.6,0.5-1.4,0.5-1.9,0c-0.2-0.3-0.4-0.6-0.4-1V25.5z"/>
		<path id="패스_40" class="st1" d="M216.7,27.6c0.2-0.7,0.6-1.3,1.1-1.9c0.5-0.5,1.2-1,1.9-1.2c1.6-0.6,3.4-0.6,5,0
			c0.7,0.3,1.3,0.7,1.9,1.2c0.5,0.5,0.9,1.2,1.1,1.9c0.3,0.8,0.4,1.5,0.4,2.3c0,0.8-0.1,1.6-0.4,2.4c-0.2,0.7-0.6,1.4-1.1,2
			c-0.5,0.6-1.1,1-1.9,1.3c-0.8,0.3-1.7,0.5-2.6,0.5c-0.9,0-1.8-0.1-2.7-0.5c-0.7-0.3-1.3-0.7-1.8-1.3c-0.5-0.6-0.9-1.2-1.1-2
			c-0.2-0.8-0.3-1.6-0.3-2.5C216.3,29.2,216.5,28.4,216.7,27.6 M219.2,31.6c0.1,0.5,0.3,0.9,0.5,1.3c0.3,0.4,0.6,0.7,1,0.9
			c0.5,0.2,1,0.3,1.5,0.3c0.5,0,1-0.1,1.5-0.3c0.4-0.2,0.8-0.5,1-0.9c0.3-0.4,0.5-0.8,0.6-1.3c0.1-0.5,0.2-1.1,0.2-1.6
			c0-1-0.2-1.9-0.8-2.7c-1.3-1.3-3.4-1.4-4.7-0.1c0,0-0.1,0.1-0.1,0.1c-0.6,0.8-0.9,1.8-0.8,2.7C219,30.5,219,31,219.2,31.6"/>
		<path id="패스_41" class="st1" d="M230,25.7c0-0.4,0.1-0.9,0.4-1.2c0.4-0.3,0.8-0.4,1.3-0.4c0.5,0,1,0.2,1.3,0.7l4.6,7.4h0v-6.8
			c0-0.7,0.6-1.3,1.3-1.3c0.7,0,1.3,0.6,1.3,1.3v9c0,0.4-0.1,0.9-0.4,1.2c-0.3,0.3-0.8,0.5-1.2,0.4c-0.3,0-0.6,0-0.9-0.1
			c-0.2-0.1-0.4-0.3-0.6-0.6l-4.6-7.2h0v6.6c0,0.7-0.6,1.3-1.3,1.2c-0.7,0-1.2-0.6-1.2-1.2L230,25.7z"/>
		<path id="패스_42" class="st1" d="M42.1,29.4c-4.7-0.1-8.5-3.9-8.4-8.6s3.9-8.5,8.6-8.4c4.7,0.1,8.4,3.9,8.4,8.5
			C50.7,25.6,46.8,29.4,42.1,29.4 M42.1,14.7c-3.4,0-6.1,2.8-6.1,6.3s2.8,6.1,6.3,6.1c3.4,0,6.1-2.8,6.1-6.2
			C48.3,17.4,45.5,14.7,42.1,14.7"/>
		<path id="패스_43" class="st1" d="M31.6,28.8c0.2-0.4,0.2-0.8,0-1.2c-1.3-2-2-4.3-2-6.7C29.6,14,35.2,8.5,42.1,8.6h28.5
			c0.7,0,1.2-0.5,1.2-1.2s-0.5-1.2-1.2-1.2H42.1c-8.2,0-14.8,6.5-14.9,14.7c0,2.1,0.5,4.2,1.4,6.2h-4.2c-0.7-2-1.1-4.1-1.1-6.2
			c0.1-10.3,8.5-18.6,18.8-18.5h23c0.7,0,1.2-0.5,1.2-1.2c0,0,0,0,0,0C66.2,0.5,65.7,0,65,0H18.9c-0.7,0-1.2,0.5-1.2,1.2
			c0,0.7,0.5,1.2,1.2,1.2c0,0,0,0,0,0h13.4c-1.9,1-3.7,2.3-5.3,3.8H13.4c-0.7,0-1.2,0.5-1.2,1.2c0,0.7,0.5,1.2,1.2,1.2c0,0,0,0,0,0
			H25c-0.9,1.2-1.6,2.4-2.2,3.8h-15c-0.7,0-1.2,0.5-1.2,1.2c0,0.7,0.5,1.2,1.2,1.2h14.1c-0.5,1.6-0.8,3.3-0.9,5H1.2
			c-0.7,0-1.2,0.5-1.2,1.2C0,21.5,0.5,22,1.2,22c0,0,0,0,0,0h19.7c0.1,1.7,0.4,3.4,0.9,5H7.8c-0.7,0-1.2,0.5-1.2,1.2
			c0,0.7,0.5,1.2,1.2,1.2c0,0,0,0,0,0h22.8C31,29.4,31.4,29.2,31.6,28.8"/>
		<path id="패스_44" class="st1" d="M82.9,19.7H63.2c-0.1-1.7-0.4-3.4-0.9-5h14.1c0.7,0,1.2-0.5,1.2-1.2s-0.5-1.2-1.2-1.2H53.5
			c-0.4,0-0.8,0.2-1.1,0.6c-0.2,0.4-0.2,0.8,0,1.2c1.3,2,2,4.3,2,6.7c-0.1,6.8-5.6,12.3-12.5,12.3H13.3c-0.7,0-1.2,0.5-1.2,1.2
			c0,0.7,0.5,1.2,1.2,1.2l0,0h28.7c8.2,0,14.8-6.5,14.9-14.7c0-2.1-0.5-4.2-1.4-6.2h4.2c0.7,2,1.1,4.1,1.1,6.2
			c-0.1,10.3-8.5,18.6-18.8,18.5H18.9c-0.7,0-1.2,0.5-1.2,1.2c0,0.7,0.5,1.2,1.2,1.2H65c0.7,0,1.2-0.5,1.2-1.2
			c0-0.7-0.5-1.2-1.2-1.2l0,0H51.8c2-1,3.7-2.3,5.3-3.9h14.1c0.7,0,1.2-0.5,1.2-1.2c0-0.7-0.5-1.2-1.2-1.2H59.2
			c0.9-1.2,1.6-2.4,2.2-3.8h15c0.7,0,1.2-0.5,1.2-1.2c0-0.7-0.5-1.2-1.2-1.2c0,0,0,0,0,0H62.3c0.5-1.6,0.8-3.3,0.9-4.9h19.7
			c0.7,0,1.2-0.5,1.2-1.2C84.1,20.2,83.6,19.7,82.9,19.7C82.9,19.7,82.9,19.7,82.9,19.7"/>
	</g>
</g>
</svg>
