<svg xmlns="http://www.w3.org/2000/svg" xmlns:xlink="http://www.w3.org/1999/xlink" width="220" height="38" viewBox="0 0 220 38">
  <defs>
    <clipPath id="clip-path">
      <rect id="사각형_2" data-name="사각형 2" width="220" height="38" transform="translate(0 0.2)" fill="#fff"/>
    </clipPath>
  </defs>
  <g id="그룹_6" data-name="그룹 6" transform="translate(0 -0.2)">
    <g id="그룹_3" data-name="그룹 3" transform="translate(0 0)" clip-path="url(#clip-path)">
      <path id="패스_23" data-name="패스 23" d="M110.224,7.678a1.167,1.167,0,0,1,.333-.87,1.357,1.357,0,0,1,1.774,0,1.181,1.181,0,0,1,.326.87v8.513a1.183,1.183,0,0,1-.326.871,1.36,1.36,0,0,1-1.774,0,1.168,1.168,0,0,1-.333-.871Z" transform="translate(-21.843 -1.355)" fill="#ff2174"/>
      <path id="패스_24" data-name="패스 24" d="M124.409,13.48c.059-.118.124-.239.193-.365a5.786,5.786,0,0,1,.385-.688.97.97,0,0,1,.771-.454,1.015,1.015,0,0,1,.668.248.747.747,0,0,1,.3.586,1.311,1.311,0,0,1-.1.445,3.829,3.829,0,0,1-.253.535,4.825,4.825,0,0,1-.349.535,3.352,3.352,0,0,1-.4.445l.889,1.053a.883.883,0,0,1,.208.585.847.847,0,0,1-.3.644,1.157,1.157,0,0,1-.809.278.653.653,0,0,1-.385-.1,2.1,2.1,0,0,1-.342-.307l-.682-.775a4.249,4.249,0,0,1-1.55.973,5.669,5.669,0,0,1-1.891.3,4.026,4.026,0,0,1-1.475-.248,2.953,2.953,0,0,1-1.04-.667,2.751,2.751,0,0,1-.607-.936,2.922,2.922,0,0,1-.2-1.061,2.983,2.983,0,0,1,.63-1.908,4.693,4.693,0,0,1,1.7-1.309,6.546,6.546,0,0,1-.757-1.025,2.122,2.122,0,0,1-.266-1.068,2.325,2.325,0,0,1,.86-1.91,3.246,3.246,0,0,1,2.106-.694,3.959,3.959,0,0,1,1.43.233,2.636,2.636,0,0,1,.957.608,2.343,2.343,0,0,1,.519.812,2.562,2.562,0,0,1-.349,2.435,3.487,3.487,0,0,1-1.342,1.091Zm-3.337-.892a4.009,4.009,0,0,0-1.09.8,1.369,1.369,0,0,0-.378.944A1.394,1.394,0,0,0,120,15.352a1.434,1.434,0,0,0,1.062.4,2.159,2.159,0,0,0,1.052-.244,4.676,4.676,0,0,0,.905-.65Zm-.133-2.766a5.24,5.24,0,0,0,.755.746l.045-.029a4.353,4.353,0,0,0,.853-.643,1.155,1.155,0,0,0,.319-.849.885.885,0,0,0-.319-.68,1.258,1.258,0,0,0-1.58-.013.846.846,0,0,0-.312.665,1.283,1.283,0,0,0,.238.8" transform="translate(-23.273 -1.379)" fill="#ff2174"/>
      <path id="패스_25" data-name="패스 25" d="M137.516,16.558a1.137,1.137,0,0,1-.526.659,2.705,2.705,0,0,1-1.913,0,1.133,1.133,0,0,1-.527-.659l-3-8.31a2.027,2.027,0,0,1-.147-.7.93.93,0,0,1,.356-.812,1.455,1.455,0,0,1,.874-.256,1.133,1.133,0,0,1,.779.256,1.7,1.7,0,0,1,.451.8l2.2,7.17h.03l2.284-7.17q.326-1.053,1.143-1.053a1.455,1.455,0,0,1,.875.256.93.93,0,0,1,.356.812,2.034,2.034,0,0,1-.148.7Z" transform="translate(-26.041 -1.355)" fill="#ff2174"/>
      <path id="패스_26" data-name="패스 26" d="M144.63,7.678a1.17,1.17,0,0,1,.333-.87,1.357,1.357,0,0,1,1.774,0,1.181,1.181,0,0,1,.326.87v8.513a1.183,1.183,0,0,1-.326.871,1.36,1.36,0,0,1-1.774,0,1.172,1.172,0,0,1-.333-.871Z" transform="translate(-28.662 -1.355)" fill="#ff2174"/>
      <path id="패스_27" data-name="패스 27" d="M150.55,8.124a1.388,1.388,0,0,1,.363-1.083,1.557,1.557,0,0,1,1.061-.322h5.711a1.64,1.64,0,0,1,.911.212.838.838,0,0,1,.319.754.84.84,0,0,1-.319.746,1.6,1.6,0,0,1-.911.219h-4.7v2.282h4.124a1.534,1.534,0,0,1,.839.2.8.8,0,0,1,.3.724.8.8,0,0,1-.3.716,1.486,1.486,0,0,1-.839.2h-4.124V15.32H157.8a1.661,1.661,0,0,1,.912.212.842.842,0,0,1,.319.755.84.84,0,0,1-.319.745,1.605,1.605,0,0,1-.912.219h-5.829a1.557,1.557,0,0,1-1.061-.321,1.385,1.385,0,0,1-.363-1.083Z" transform="translate(-29.835 -1.406)" fill="#ff2174"/>
      <path id="패스_28" data-name="패스 28" d="M173.167,16.25a1.625,1.625,0,0,1-.482.885,1.569,1.569,0,0,1-.986.255,1.441,1.441,0,0,1-.978-.278,1.793,1.793,0,0,1-.476-.907l-1.586-6.422h-.03l-1.588,6.422a1.68,1.68,0,0,1-.467.907,1.473,1.473,0,0,1-.986.278,1.57,1.57,0,0,1-.978-.255,1.6,1.6,0,0,1-.489-.885l-2.092-8a2.814,2.814,0,0,1-.119-.688.965.965,0,0,1,.356-.8,1.268,1.268,0,0,1,.815-.285,1.083,1.083,0,0,1,1.143.98l1.438,6.993h.031l1.661-7.08a1.162,1.162,0,0,1,.371-.68,1.481,1.481,0,0,1,.905-.212,1.347,1.347,0,0,1,.971.278,1.775,1.775,0,0,1,.408.864l1.617,6.831h.03l1.453-6.993a1.06,1.06,0,0,1,1.1-.98,1.268,1.268,0,0,1,.815.285.963.963,0,0,1,.356.8,2.842,2.842,0,0,1-.118.688Z" transform="translate(-32.086 -1.355)" fill="#ff2174"/>
      <path id="패스_29" data-name="패스 29" d="M109.016,31.264a5.089,5.089,0,0,1,1-1.764,4.651,4.651,0,0,1,1.653-1.192,5.522,5.522,0,0,1,2.233-.432,5.645,5.645,0,0,1,1.8.271,4.678,4.678,0,0,1,1.371.7,3.369,3.369,0,0,1,.854.907,1.7,1.7,0,0,1,.288.87.963.963,0,0,1-1.1,1.083,1.026,1.026,0,0,1-.661-.2,3.061,3.061,0,0,1-.526-.593,3.333,3.333,0,0,0-.8-.826,2.18,2.18,0,0,0-1.232-.285,2.48,2.48,0,0,0-1.988.966,3.978,3.978,0,0,0-.8,2.618,5.6,5.6,0,0,0,.164,1.389,3.539,3.539,0,0,0,.5,1.14,2.339,2.339,0,0,0,.9.776,2.9,2.9,0,0,0,1.312.279,1.786,1.786,0,0,0,1.113-.308,4.133,4.133,0,0,0,.816-.893,3.805,3.805,0,0,1,.54-.622.848.848,0,0,1,.572-.2,1.434,1.434,0,0,1,.831.248.783.783,0,0,1,.354.675,2.149,2.149,0,0,1-.326,1.1,3.459,3.459,0,0,1-.912.987,4.588,4.588,0,0,1-1.357.686,5.948,5.948,0,0,1-5.555-1.162,5.622,5.622,0,0,1-1.387-4.1,6.661,6.661,0,0,1,.334-2.129" transform="translate(-21.538 -5.831)" fill="#fff"/>
      <path id="패스_30" data-name="패스 30" d="M122.229,31.111a4.9,4.9,0,0,1,1.045-1.712,4.616,4.616,0,0,1,1.7-1.126,6.882,6.882,0,0,1,4.6,0,4.615,4.615,0,0,1,1.7,1.126,4.9,4.9,0,0,1,1.045,1.712,6.238,6.238,0,0,1,.356,2.15,6.877,6.877,0,0,1-.333,2.157,5.136,5.136,0,0,1-1.017,1.8,4.809,4.809,0,0,1-1.705,1.235,5.716,5.716,0,0,1-2.343.456,6.359,6.359,0,0,1-2.426-.425,4.407,4.407,0,0,1-1.689-1.185,4.816,4.816,0,0,1-.972-1.786,7.7,7.7,0,0,1-.312-2.252,6.238,6.238,0,0,1,.357-2.15m2.224,3.62a3.375,3.375,0,0,0,.489,1.17,2.329,2.329,0,0,0,.92.79,3.161,3.161,0,0,0,1.41.286,3.03,3.03,0,0,0,1.371-.286,2.428,2.428,0,0,0,.928-.8,3.4,3.4,0,0,0,.512-1.178,6.422,6.422,0,0,0,.156-1.456,3.891,3.891,0,0,0-.757-2.509,3.059,3.059,0,0,0-4.419,0,3.886,3.886,0,0,0-.757,2.509,6.783,6.783,0,0,0,.148,1.47" transform="translate(-24.152 -5.831)" fill="#fff"/>
      <path id="패스_31" data-name="패스 31" d="M137.5,29.136a1.054,1.054,0,0,1,.37-.921,1.6,1.6,0,0,1,.95-.263h.711a1.336,1.336,0,0,1,.868.249,1.776,1.776,0,0,1,.5.848l2.121,6.759h.03l2.09-6.759a1.776,1.776,0,0,1,.5-.848,1.333,1.333,0,0,1,.868-.249h.682a1.6,1.6,0,0,1,.949.263,1.056,1.056,0,0,1,.37.921v8.558a1.3,1.3,0,0,1-.266.834,1.159,1.159,0,0,1-1.632,0,1.3,1.3,0,0,1-.266-.834V31.17h-.03l-2.269,6.992a.972.972,0,0,1-1.038.7.985.985,0,0,1-1.038-.7L139.7,31.17h-.03v6.524a1.3,1.3,0,0,1-.267.834,1.158,1.158,0,0,1-1.632,0,1.3,1.3,0,0,1-.267-.834Z" transform="translate(-27.25 -5.847)" fill="#fff"/>
      <path id="패스_32" data-name="패스 32" d="M153.931,29.136a1.054,1.054,0,0,1,.37-.921,1.6,1.6,0,0,1,.95-.263h.711a1.336,1.336,0,0,1,.868.249,1.776,1.776,0,0,1,.5.848l2.121,6.759h.03l2.09-6.759a1.776,1.776,0,0,1,.5-.848,1.333,1.333,0,0,1,.868-.249h.682a1.6,1.6,0,0,1,.949.263,1.056,1.056,0,0,1,.37.921v8.558a1.3,1.3,0,0,1-.266.834,1.159,1.159,0,0,1-1.632,0,1.3,1.3,0,0,1-.266-.834V31.17h-.03l-2.269,6.992a.972.972,0,0,1-1.038.7.985.985,0,0,1-1.038-.7l-2.27-6.992h-.03v6.524a1.3,1.3,0,0,1-.267.834,1.158,1.158,0,0,1-1.632,0,1.3,1.3,0,0,1-.267-.834Z" transform="translate(-30.505 -5.847)" fill="#fff"/>
      <path id="패스_33" data-name="패스 33" d="M170.412,29.151a1.17,1.17,0,0,1,.333-.87,1.357,1.357,0,0,1,1.774,0,1.181,1.181,0,0,1,.326.87v5.764a2.005,2.005,0,0,0,.571,1.567,2.882,2.882,0,0,0,3.279,0,2.005,2.005,0,0,0,.571-1.567V29.151a1.168,1.168,0,0,1,.334-.87,1.356,1.356,0,0,1,1.773,0,1.182,1.182,0,0,1,.326.87v5.573a3.921,3.921,0,0,1-1.224,3.154,6.107,6.107,0,0,1-6.836,0,3.921,3.921,0,0,1-1.224-3.154Z" transform="translate(-33.771 -5.847)" fill="#fff"/>
      <path id="패스_34" data-name="패스 34" d="M184.749,29.356a1.372,1.372,0,0,1,.37-1.075,1.71,1.71,0,0,1,1.158-.33,1.323,1.323,0,0,1,1.216.63l4.256,6.773h.031V29.106a1.171,1.171,0,0,1,2.342,0v8.267a1.616,1.616,0,0,1-.341,1.112,1.41,1.41,0,0,1-1.1.38,1.96,1.96,0,0,1-.831-.131,1.347,1.347,0,0,1-.5-.512l-4.227-6.584h-.028V37.71a1.172,1.172,0,0,1-2.345,0Z" transform="translate(-36.612 -5.847)" fill="#fff"/>
      <path id="패스_35" data-name="패스 35" d="M199.2,29.151a1.17,1.17,0,0,1,.333-.87,1.357,1.357,0,0,1,1.774,0,1.181,1.181,0,0,1,.326.87v8.513a1.183,1.183,0,0,1-.326.871,1.36,1.36,0,0,1-1.774,0,1.172,1.172,0,0,1-.333-.871Z" transform="translate(-39.475 -5.847)" fill="#fff"/>
      <path id="패스_36" data-name="패스 36" d="M204.95,31.264a5.089,5.089,0,0,1,1-1.764,4.651,4.651,0,0,1,1.653-1.192,5.522,5.522,0,0,1,2.233-.432,5.645,5.645,0,0,1,1.8.271,4.678,4.678,0,0,1,1.371.7,3.37,3.37,0,0,1,.854.907,1.7,1.7,0,0,1,.288.87.963.963,0,0,1-1.1,1.083,1.026,1.026,0,0,1-.661-.2,3.06,3.06,0,0,1-.526-.593,3.334,3.334,0,0,0-.8-.826,2.18,2.18,0,0,0-1.232-.285,2.48,2.48,0,0,0-1.988.966,3.978,3.978,0,0,0-.8,2.618,5.6,5.6,0,0,0,.164,1.389,3.54,3.54,0,0,0,.5,1.14,2.339,2.339,0,0,0,.9.776,2.9,2.9,0,0,0,1.312.279,1.788,1.788,0,0,0,1.113-.308,4.133,4.133,0,0,0,.816-.893,3.806,3.806,0,0,1,.54-.622.848.848,0,0,1,.572-.2,1.434,1.434,0,0,1,.831.248.783.783,0,0,1,.354.675,2.148,2.148,0,0,1-.326,1.1,3.459,3.459,0,0,1-.912.987,4.588,4.588,0,0,1-1.357.686A5.948,5.948,0,0,1,206,37.5a5.622,5.622,0,0,1-1.387-4.1,6.661,6.661,0,0,1,.334-2.129" transform="translate(-40.549 -5.831)" fill="#fff"/>
      <path id="패스_37" data-name="패스 37" d="M220.54,28.684a1.039,1.039,0,0,1,.438-.564,1.473,1.473,0,0,1,.749-.168h.579a1.606,1.606,0,0,1,.8.183,1.205,1.205,0,0,1,.505.694l2.936,8.062q.089.248.164.5a1.592,1.592,0,0,1,.075.417.977.977,0,0,1-.334.746,1.151,1.151,0,0,1-.809.307,1.046,1.046,0,0,1-1.1-.657l-.623-1.757h-3.915l-.637,1.757a1.008,1.008,0,0,1-1.084.657,1.157,1.157,0,0,1-.815-.285.988.988,0,0,1-.312-.767,1.552,1.552,0,0,1,.074-.417q.075-.256.163-.5Zm1.469,1.872h-.03l-1.438,4.229h2.849Z" transform="translate(-43.035 -5.847)" fill="#fff"/>
      <path id="패스_38" data-name="패스 38" d="M231.744,30.211h-2.3a1.485,1.485,0,0,1-.905-.263.96.96,0,0,1,0-1.492,1.485,1.485,0,0,1,.905-.263h7.03a1.485,1.485,0,0,1,.905.263.96.96,0,0,1,0,1.492,1.485,1.485,0,0,1-.905.263h-2.3v7.5a1.178,1.178,0,0,1-.327.871,1.36,1.36,0,0,1-1.772,0,1.173,1.173,0,0,1-.333-.871Z" transform="translate(-45.22 -5.897)" fill="#fff"/>
      <path id="패스_39" data-name="패스 39" d="M241.724,29.151a1.167,1.167,0,0,1,.333-.87,1.357,1.357,0,0,1,1.774,0,1.181,1.181,0,0,1,.326.87v8.513a1.183,1.183,0,0,1-.326.871,1.36,1.36,0,0,1-1.774,0,1.168,1.168,0,0,1-.333-.871Z" transform="translate(-47.903 -5.847)" fill="#fff"/>
      <path id="패스_40" data-name="패스 40" d="M247.334,31.111A4.918,4.918,0,0,1,248.38,29.4a4.616,4.616,0,0,1,1.7-1.126,6.883,6.883,0,0,1,4.6,0,4.615,4.615,0,0,1,1.7,1.126,4.9,4.9,0,0,1,1.045,1.712,6.238,6.238,0,0,1,.356,2.15,6.876,6.876,0,0,1-.333,2.157,5.135,5.135,0,0,1-1.017,1.8,4.809,4.809,0,0,1-1.705,1.235,5.716,5.716,0,0,1-2.343.456,6.359,6.359,0,0,1-2.426-.425,4.408,4.408,0,0,1-1.689-1.185,4.817,4.817,0,0,1-.972-1.786,7.7,7.7,0,0,1-.312-2.252,6.257,6.257,0,0,1,.356-2.15m2.225,3.62a3.376,3.376,0,0,0,.489,1.17,2.33,2.33,0,0,0,.92.79,3.161,3.161,0,0,0,1.41.286,3.03,3.03,0,0,0,1.371-.286,2.428,2.428,0,0,0,.928-.8,3.4,3.4,0,0,0,.512-1.178,6.422,6.422,0,0,0,.156-1.456,3.891,3.891,0,0,0-.757-2.509,3.059,3.059,0,0,0-4.419,0,3.887,3.887,0,0,0-.757,2.509,6.785,6.785,0,0,0,.148,1.47" transform="translate(-48.944 -5.831)" fill="#fff"/>
      <path id="패스_41" data-name="패스 41" d="M262.609,29.356a1.372,1.372,0,0,1,.37-1.075,1.709,1.709,0,0,1,1.158-.33,1.322,1.322,0,0,1,1.216.63l4.257,6.773h.03V29.106a1.172,1.172,0,0,1,2.343,0v8.267a1.612,1.612,0,0,1-.342,1.112,1.406,1.406,0,0,1-1.1.38,1.96,1.96,0,0,1-.831-.131,1.341,1.341,0,0,1-.5-.512l-4.227-6.584h-.029V37.71a1.172,1.172,0,0,1-2.345,0Z" transform="translate(-52.042 -5.847)" fill="#fff"/>
      <path id="패스_42" data-name="패스 42" d="M46.06,29.9a7.811,7.811,0,1,1,7.918-7.81A7.873,7.873,0,0,1,46.06,29.9m0-13.454a5.644,5.644,0,1,0,5.722,5.643,5.689,5.689,0,0,0-5.722-5.643" transform="translate(-7.559 -2.987)" fill="#ff2174"/>
      <path id="패스_43" data-name="패스 43" d="M28.961,26.344a1.07,1.07,0,0,0-.045-1.107A11.114,11.114,0,0,1,27.075,19.1,11.361,11.361,0,0,1,38.5,7.831H64.593a1.083,1.083,0,1,0,0-2.166H38.5A13.545,13.545,0,0,0,24.879,19.1a13.257,13.257,0,0,0,1.257,5.644H22.329a16.626,16.626,0,0,1-1-5.644A17.072,17.072,0,0,1,38.5,2.166h21.03a1.091,1.091,0,0,0,1.1-1.083A1.091,1.091,0,0,0,59.531,0H17.274a1.091,1.091,0,0,0-1.1,1.083,1.091,1.091,0,0,0,1.1,1.083H29.56a19.437,19.437,0,0,0-4.809,3.5H12.236a1.083,1.083,0,1,0,0,2.166H22.879a19.051,19.051,0,0,0-2.043,3.458H7.117a1.083,1.083,0,1,0,0,2.166H20a18.753,18.753,0,0,0-.831,4.562H1.1a1.083,1.083,0,1,0,0,2.166H19.169A18.7,18.7,0,0,0,20,24.744H7.117a1.083,1.083,0,1,0,0,2.166H28a1.1,1.1,0,0,0,.965-.566" transform="translate(0 0)" fill="#fff"/>
      <path id="패스_44" data-name="패스 44" d="M78.645,21H60.575a18.735,18.735,0,0,0-.831-4.562H72.622a1.083,1.083,0,1,0,0-2.166H51.747a1.1,1.1,0,0,0-.965.567,1.068,1.068,0,0,0,.045,1.106,11.111,11.111,0,0,1,1.841,6.138A11.36,11.36,0,0,1,41.242,33.356H14.929a1.083,1.083,0,1,0,0,2.166H41.242A13.545,13.545,0,0,0,54.863,22.087a13.242,13.242,0,0,0-1.256-5.645h3.808a16.642,16.642,0,0,1,1,5.645A17.072,17.072,0,0,1,41.242,39.02H20.014a1.083,1.083,0,1,0,0,2.166H62.272a1.083,1.083,0,1,0,0-2.166H50.183a19.45,19.45,0,0,0,4.849-3.54H67.968a1.083,1.083,0,1,0,0-2.166H56.895a18.97,18.97,0,0,0,2.033-3.46H72.622a1.083,1.083,0,1,0,0-2.166H59.756a18.729,18.729,0,0,0,.819-4.519h18.07a1.083,1.083,0,1,0,0-2.166" transform="translate(-2.741 -2.986)" fill="#fff"/>
    </g>
  </g>
</svg>
